# xmcd CD database file
#
# Track frame offsets:
#	150
#	5286
#	34718
#	83271
#	105903
#	120491
#	156830
#	186812
#	205651
#	233308
#	277464
#
# Disc length: 3873 seconds
#
# Revision: 0
# Processed by: cddbd v1.5.2PL0 Copyright (c) Steve Scherf et al.
# Submitted via: CDex 1.70beta2
#
DISCID=770f1f0b
DTITLE=Vinny Golia - A Gift For The Unusual (Music For The Contrabass Saxophone)
DYEAR=2004
DGENRE=Jazz
TTITLE0=Single Booth Enclosure- Prime
TTITLE1=Repetition
TTITLE2=Mr. Amons Builds His Bridge
TTITLE3=Eye My
TTITLE4=Single Booth Enclosure Third- Revisitation
TTITLE5=The Mozart Of Vice
TTITLE6=The 15th
TTITLE7=Just Something I Thought Of
TTITLE8=Once Upon A Time On My Way To The Studio
TTITLE9=A History Of Everything That Ever Happened
TTITLE10=The Last Of Its Kind
EXTD=YEAR: 2004
EXTT0=
EXTT1=
EXTT2=
EXTT3=
EXTT4=
EXTT5=
EXTT6=
EXTT7=
EXTT8=
EXTT9=
EXTT10=
PLAYORDER=
